PathFileType	4	(X/Y/Z)	C:\Users\Gabre\Documents\2-Sophmore\Autumn\ME 191\Nick_10292018\Nick_10292018\Upper Extremity\shoulder_flexion.trc
DataRate	CameraRate	NumFrames	NumMarkers	Units	OrigDataRate	OrigDataStartFrame	OrigNumFrames
100.00	100.00	       17	21	mm	100.00	156	       621
Frame#	Time	Back_IMU_O			Back_IMU_D			Back_IMU_X			Back_IMU_Y			C7			R.Acromion			L.Acromion			R.Elbow			R.Radius			R.Ulna			R.Hand			Humerus_IMU_O			Humerus_IMU_D			Humerus_IMU_X			Humerus_IMU_Y			Forearm_IMU_O			Forearm_IMU_D			Forearm_IMU_X			Forearm_IMU_Y			Hand_IMU_O			Scapula_IMU_O			
		X1	Y1	Z1	X2	Y2	Z2	X3	Y3	Z3	X4	Y4	Z4	X5	Y5	Z5	X6	Y6	Z6	X7	Y7	Z7	X8	Y8	Z8	X9	Y9	Z9	X10	Y10	Z10	X11	Y11	Z11	X12	Y12	Z12	X13	Y13	Z13	X14	Y14	Z14	X15	Y15	Z15	X16	Y16	Z16	X17	Y17	Z17	X18	Y18	Z18	X19	Y19	Z19	X20	Y20	Z20	X21	Y21	Z21	

156	1.550	-913.00024	452.21640	1016.86060	-935.78491	527.10022	908.40399	-916.02649	537.78912	1009.02814	-932.86133	443.02765	916.16205	-903.56061	496.91678	1031.21533	-815.74628	363.49252	1035.76770	-820.61530	675.36340	988.00098	-530.06464	241.93697	1082.79224	-348.51480	250.31117	1297.36719	-326.13116	221.38811	1251.97717	-256.14011	234.34293	1358.09631	-724.57526	304.18164	1098.39331	-665.33252	230.25505	1011.82721	-730.01190	240.06889	1007.63696	-660.00385	292.85342	1099.82507	-417.02530	250.17349	1268.78577	-333.88855	208.47871	1213.33875	-373.25388	212.62564	1189.12781	-380.26114	246.70253	1293.57275	-284.89719	214.17381	1317.42700	-848.78180	328.50772	1035.83679	
157	1.560	-912.79053	452.31833	1016.85718	-935.25897	527.03247	908.48016	-915.80463	537.82605	1009.05640	-932.09222	442.75775	916.13892	-903.27130	496.97339	1031.23071	-815.97168	364.35776	1036.28699	-820.69824	675.46045	987.97839	-532.64966	242.80881	1091.47229	-356.67297	252.31537	1310.34607	-333.61215	222.87798	1265.51270	-265.66827	236.36658	1373.54016	-726.17224	305.74478	1101.10327	-666.46466	230.39470	1017.13135	-731.04041	240.56332	1011.55396	-662.66400	294.29279	1104.39136	-424.16782	252.19981	1279.93250	-340.21317	209.98685	1227.35864	-377.79532	214.14172	1201.27539	-389.10907	249.06236	1306.01624	-293.54971	215.96706	1332.16101	-849.01416	329.19885	1036.31738	
158	1.570	-911.83453	452.28946	1016.73090	-934.91864	526.81854	908.32092	-915.37964	537.79443	1008.98993	-931.51630	442.54144	916.01617	-902.94049	497.11716	1031.20337	-816.32898	365.25821	1036.82288	-820.65161	675.47131	987.98077	-535.76971	243.12752	1100.00012	-364.98352	253.85469	1322.90076	-341.29108	224.61377	1278.64026	-275.74799	238.44826	1388.55212	-729.30975	307.17880	1104.52722	-667.62036	230.53487	1022.40814	-731.95764	240.94038	1015.40704	-665.11078	295.72000	1109.06885	-431.52484	253.78625	1290.65381	-347.50003	211.13603	1240.78333	-383.32504	215.18857	1213.60352	-394.59750	249.96707	1316.99951	-302.38705	217.96446	1346.45508	-849.07928	329.88254	1036.96680	
159	1.580	-911.30896	452.19333	1016.70135	-934.41235	526.60535	908.11346	-915.00317	537.78650	1008.86133	-930.65833	442.47809	916.06775	-902.43933	497.19330	1031.25378	-816.87085	366.02084	1037.77905	-820.55090	675.63324	987.97955	-538.77667	243.69197	1108.39624	-373.82813	255.63254	1335.27161	-348.53210	226.15169	1291.45776	-286.26758	240.41011	1403.17688	-730.32513	309.18298	1106.73560	-668.86835	230.81123	1027.68921	-733.38971	241.17328	1019.25592	-668.23987	297.01517	1113.70581	-439.75031	255.44997	1301.23743	-353.69058	212.31505	1253.27454	-390.07169	216.45146	1225.84827	-406.21024	252.65718	1329.80261	-311.55783	219.75195	1360.31665	-849.22662	330.56894	1037.43738	
160	1.590	-911.03723	452.11441	1016.71600	-933.68488	526.46954	908.08453	-914.82800	537.86584	1008.87775	-930.20831	442.37375	916.01599	-902.14612	497.32886	1031.22742	-817.28302	366.94080	1038.44019	-820.73920	675.65985	987.99713	-540.91193	244.88713	1115.38647	-382.23318	257.06650	1346.95886	-356.50705	227.78172	1303.90942	-296.22687	242.36847	1417.21228	-734.41681	310.80817	1109.94946	-670.83698	230.74318	1033.34021	-734.49432	241.75401	1022.92218	-671.12518	298.56918	1117.63269	-447.55185	256.89893	1311.50867	-360.18182	213.78691	1266.00623	-396.07468	217.92047	1237.35388	-414.05606	254.06372	1340.47693	-321.05920	221.66025	1373.99695	-849.49243	331.21341	1037.81812	
161	1.600	-910.62592	452.11380	1016.71582	-933.01282	526.28442	907.75647	-914.49677	537.70496	1008.71204	-929.39166	442.04663	915.94000	-901.76184	497.39743	1031.12073	-817.81781	367.71835	1039.12134	-820.51599	675.78278	987.87372	-544.47089	245.51694	1123.42017	-390.99216	258.60651	1358.31238	-364.04434	229.46339	1315.74121	-307.08868	244.30576	1430.94629	-735.27576	312.84091	1111.79761	-671.80835	230.89825	1038.39246	-735.83917	241.97571	1026.59570	-673.33716	300.12595	1121.38379	-455.74521	258.57379	1321.33557	-366.53146	215.38799	1278.24658	-402.12222	219.19742	1248.45544	-423.15057	256.05658	1351.17810	-330.44110	223.35506	1387.00891	-849.74341	331.90436	1038.36926	
162	1.610	-909.89081	452.07834	1016.66089	-932.86206	526.15723	907.67902	-914.25964	537.60254	1008.58197	-928.65491	442.02487	915.90063	-901.43500	497.43970	1031.18567	-818.24866	368.36972	1039.72302	-820.44275	675.82709	987.83667	-548.29370	245.83919	1130.71448	-400.35138	260.43417	1369.25183	-372.17346	231.05321	1327.56506	-317.94867	246.00920	1444.01172	-739.68860	314.50409	1114.80249	-674.20135	230.92964	1043.77942	-737.21643	242.46829	1030.21082	-676.32367	301.62555	1125.42065	-464.16779	259.79059	1330.78540	-373.51022	216.95938	1289.49719	-407.66394	220.55585	1259.09692	-429.33701	259.00897	1359.96790	-340.31726	225.14023	1399.38037	-849.96106	332.55521	1038.95996	
163	1.620	-909.66986	452.06961	1016.77002	-932.34326	525.87115	907.50732	-913.83368	537.53223	1008.42804	-928.29156	441.82620	916.03033	-900.95636	497.65088	1031.13586	-819.02124	369.25772	1040.44702	-820.36871	675.93903	987.79620	-550.71802	246.82983	1137.63501	-409.56073	262.10193	1379.77258	-380.40457	232.59978	1338.80591	-328.96100	247.85831	1456.37622	-740.57922	316.76938	1116.43677	-676.20111	230.99866	1048.99561	-738.94983	242.82280	1033.90723	-679.74817	303.07184	1129.56726	-472.20129	261.11377	1340.11133	-380.21173	218.68196	1300.70911	-414.21146	221.97137	1269.66199	-434.68283	262.34470	1368.27332	-350.15805	226.87057	1411.52954	-850.37872	333.18201	1039.32019	
164	1.630	-908.91699	452.06543	1016.67731	-931.73456	525.85962	907.44812	-913.39429	537.49854	1008.15576	-927.30896	441.69238	915.89594	-900.59326	497.75583	1030.98926	-819.60388	369.95300	1041.04504	-820.31903	676.04712	987.77063	-554.70337	247.31052	1144.82532	-419.11002	263.52008	1390.07397	-387.34268	234.94182	1351.09937	-340.20398	249.32440	1468.54285	-746.17627	318.00543	1119.74414	-678.03052	231.13449	1053.72571	-740.43842	243.44272	1037.34363	-681.85950	304.67099	1132.67920	-480.10721	262.70453	1348.36450	-388.37164	220.19232	1312.25439	-421.51776	223.15297	1280.01855	-439.90143	265.57269	1375.66089	-360.43323	228.58302	1423.11096	-850.66956	333.89081	1039.71252	
165	1.640	-908.39722	452.17166	1016.70569	-931.08618	525.77954	907.27979	-913.08972	537.67242	1008.13074	-926.68280	441.64847	915.93805	-900.35797	497.91336	1030.97546	-820.40088	370.78284	1041.61340	-820.25940	676.14075	987.81860	-559.41376	247.29886	1151.97107	-428.20749	265.17746	1399.61682	-395.39166	236.62080	1361.29846	-351.32986	250.91301	1480.13977	-747.97876	320.01981	1121.27319	-680.47809	231.45436	1058.66895	-742.45203	243.84265	1040.59680	-685.35431	305.88574	1136.44263	-488.41043	263.99295	1356.86401	-396.93793	220.85718	1323.20166	-427.90775	224.54796	1289.80078	-445.86057	267.26324	1384.19458	-370.10611	230.06032	1434.00842	-851.04639	334.53018	1040.12854	
166	1.650	-907.99817	452.18637	1016.75104	-930.74286	525.68408	907.14142	-912.93652	537.69037	1008.03027	-926.11066	441.43161	915.86285	-899.96234	498.02786	1030.93896	-820.83313	371.52649	1042.19934	-820.14874	676.19104	987.79456	-562.67444	248.28691	1158.08667	-437.46393	266.62119	1408.82544	-403.95517	238.07617	1370.96448	-362.64462	252.70444	1491.30737	-750.31238	321.74185	1123.59412	-682.48621	231.65547	1062.97266	-743.99323	244.56924	1043.60901	-688.53003	307.36880	1139.93518	-497.07910	265.37451	1364.86670	-403.61377	222.65866	1332.82373	-434.65723	225.73256	1298.98169	-451.71777	271.15298	1391.44043	-379.99850	231.74966	1444.63135	-851.16302	334.97763	1040.37036	
167	1.660	-907.47833	452.28036	1016.67072	-930.29730	525.43707	906.98871	-912.76080	537.68945	1007.91315	-925.28534	441.48425	915.83966	-899.72449	498.12054	1030.94775	-821.37115	372.34119	1042.74390	-820.09833	676.25989	987.84338	-565.99078	249.10039	1164.14209	-447.19757	268.29556	1417.87671	-412.82294	239.67265	1380.40674	-374.18451	254.22758	1502.02332	-752.88855	323.44156	1125.26514	-684.50189	231.94980	1067.11145	-745.76794	245.30069	1046.58411	-691.53644	308.57483	1143.13245	-505.87082	266.84769	1372.58057	-410.57919	224.06885	1342.81750	-441.72961	226.84532	1308.24780	-475.05118	262.12842	1406.53320	-390.69202	233.48578	1454.91284	-851.61414	335.62186	1040.83179	
168	1.670	-907.18909	452.31680	1016.72943	-929.55750	525.37958	906.89355	-912.27039	537.83087	1007.72247	-924.82495	441.35419	915.77679	-899.23138	498.26053	1030.79041	-821.73767	373.14316	1043.06165	-820.06738	676.29980	987.84845	-570.90222	249.39058	1170.83435	-456.32974	269.59451	1426.21252	-420.90167	241.17578	1389.34314	-385.43192	256.01517	1512.17480	-753.46991	325.29468	1126.35229	-686.64020	232.14420	1071.14868	-747.69318	245.84360	1049.36182	-694.76306	309.92862	1146.35901	-513.90985	268.26514	1379.88416	-418.60870	225.34267	1352.25989	-448.70944	228.01024	1317.05298	-485.66638	262.86603	1415.47485	-400.95932	234.96371	1465.10828	-851.78400	336.23309	1041.05469	
169	1.680	-906.59570	452.32330	1016.60846	-929.07220	525.19690	906.63379	-911.94141	537.84119	1007.59674	-924.19104	441.17941	915.77197	-899.03510	498.35464	1030.81140	-822.13129	373.88034	1043.43494	-819.89032	676.38306	987.80957	-574.54968	250.08737	1176.46301	-465.84927	271.17215	1434.51672	-429.71426	242.30008	1398.19031	-396.66147	257.68192	1522.02625	-758.49786	326.78003	1128.93445	-689.09723	232.46851	1075.23267	-749.16376	246.47797	1052.02405	-697.34277	311.15640	1149.18872	-521.97040	269.73038	1386.81079	-427.35519	225.89973	1361.81982	-456.02518	229.06403	1325.71851	-494.21036	264.49741	1422.60535	-411.09125	236.45320	1474.57361	-851.88953	336.76944	1041.45129	
170	1.690	-906.40259	452.42471	1016.67438	-928.66901	525.14703	906.48004	-911.64734	537.90253	1007.49213	-923.57983	441.16528	915.67950	-898.54425	498.43033	1030.73010	-822.75238	374.60995	1044.04712	-819.77637	676.34424	987.76270	-578.32703	250.58009	1182.26685	-475.25449	272.43671	1442.38464	-438.30066	243.50781	1406.86621	-407.97318	259.30350	1531.42822	-760.27002	328.14697	1130.21643	-691.57758	232.78436	1079.28198	-750.84222	246.92274	1054.81409	-700.41241	312.50766	1152.03418	-530.30920	271.09900	1393.55933	-434.65543	227.09322	1370.34924	-463.89026	229.85744	1334.21509	-502.08014	266.45795	1430.22778	-421.30081	237.93777	1483.73303	-852.19720	337.44211	1041.90308	
171	1.700	-905.90729	452.39883	1016.79675	-928.22986	525.09082	906.31671	-911.44116	537.89075	1007.37683	-922.94196	441.02185	915.64313	-898.33130	498.55869	1030.69946	-823.07300	375.28107	1044.38159	-819.67932	676.42267	987.78607	-582.47943	251.12219	1187.99280	-484.53226	273.75296	1449.86670	-447.46838	244.84518	1415.13037	-418.99582	261.09872	1540.54138	-761.93939	329.80762	1131.15295	-693.81738	233.40666	1083.10547	-752.56555	248.01381	1056.87170	-703.10907	313.66129	1154.82385	-538.78986	272.55063	1399.99866	-444.03821	226.94824	1379.42737	-470.74811	230.74849	1342.20813	-512.26630	267.23257	1437.31738	-431.53616	239.40823	1492.53052	-852.34009	337.84024	1042.07166	
172	1.710	-905.35474	452.45560	1016.61627	-927.64319	524.94232	906.16510	-911.18005	537.86346	1007.21643	-922.27258	440.99634	915.74097	-898.10876	498.75406	1030.67786	-823.78674	375.94229	1044.76660	-819.54047	676.78101	987.65002	-587.34619	251.01265	1193.59326	-493.87625	275.15347	1456.94556	-455.72986	245.93881	1422.60608	-430.50345	262.59442	1548.90186	-763.19879	331.51749	1132.18005	-696.46320	233.36870	1087.03113	-754.68085	248.33224	1059.46716	-706.07233	314.75333	1157.35767	-547.06000	273.77463	1406.12280	-451.13644	228.74190	1387.19189	-477.44696	231.61823	1349.57666	-520.46844	269.00015	1443.57202	-441.53537	240.84404	1500.93994	-852.50818	338.54095	1042.41797	
